<?xml version="1.0" standalone="no"?>
<!DOCTYPE svg PUBLIC "-//W3C//DTD SVG 20010904//EN"
 "http://www.w3.org/TR/2001/REC-SVG-20010904/DTD/svg10.dtd">
<svg version="1.0" xmlns="http://www.w3.org/2000/svg"
 width="600.000000pt" height="590.000000pt" viewBox="0 0 600.000000 590.000000"
 preserveAspectRatio="xMidYMid meet">

<g transform="translate(0.000000,590.000000) scale(0.100000,-0.100000)"
fill="#000000" stroke="none">
<path d="M2037 5023 c-30 -59 -69 -189 -73 -242 -2 -31 -1 -48 2 -38 3 9 10
17 15 17 5 0 9 5 9 11 0s 5 -6 7 -12 3 -10 -6 -10 -4 -2 7 7 8 15 29 19 47 7
34 25 45 25 15 -1 -10 -6 -43 -13 -73 -14 -60 -14 -114 -2 -200 5 -30 9 -64
11 -75 1 -11 5 -33 9 -50 l6 -30 -17 29 c-9 16 -18 36 -19 45 -2 9 -4 18 -5
21 -3 7 -6 32 -8 58 -1 12 -7 22 -12 22 -6 0 -9 -29 -8 -73 2 -54 -1 -79 -14
-98 -24 -38 -160 -104 -253 -124 -135 -28 -184 -45 -228 -78 -73 -56 -109
-168 -79 -247 23 -60 129 -130 218 -145 40 -6 126 5 168 21 16 6 18 4 14 -12
-78 -268 -101 -376 -112 -529 -15 -211 -18 -325 -8 -325 7 0 9 -13 5 -34 -3
-18 -1 -36 5 -40 6 -3 9 20 9 62 l0 68 54 51 c69 65 94 85 182 143 138 89 201
172 232 302 33 140 2 320 -79 468 -8 14 -19 76 -25 138 -11 107 -11 115 8 141
53 74 317 291 383 314 23 8 91 -26 132 -67 18 -19 62 -83 96 -143 129 -226
259 -317 385 -268 34 12 56 31 85 69 50 69 93 104 136 112 32 6 108 2 240 -12
88 -10 117 14 197 165 l43 80 87 -86 c48 -47 87 -88 87 -91 0 -3 7 -12 15 -21
8 -9 23 -26 35 -38 11 -13 20 -28 20 -34 0 -5 5 -7 10 -4 6 3 13 -2 16 -12 13
-42 38 -83 51 -83 8 0 13 -6 11 -12 -1 -7 10 -35 24 -63 33 -65 123 -343 138
-426 6 -35 20 -103 31 -152 18 -81 19 -91 4 -135 -8 -26 -17 -68 -21 -95 -3
-29 -14 -58 -28 -74 l-24 -27 -75 23 c-83 27 -128 24 -171 -10 -34 -26 -63
-82 -47 -87 40 -13 222 -109 274 -143 34 -23 97 -78 140 -122 l77 -81 -6 50
c-19 165 -61 482 -75 569 -5 33 -16 98 -23 145 -8 47 -26 135 -42 197 -15 62
-25 115 -22 118 4 4 24 -5 45 -19 60 -42 158 -68 221 -60 102 13 146 66 158
191 13 141 -29 216 -156 281 -69 34 -105 45 -189 57 -165 24 -241 70 -226 137
3 18 9 74 12 124 4 77 1 106 -21 189 -44 166 -99 259 -156 267 -24 3 -25 1
-32 -72 -7 -82 -26 -144 -59 -193 -33 -47 -121 -137 -136 -137 -7 0 -34 13
-60 29 -67 40 -214 97 -303 116 -117 25 -393 31 -515 11 -117 -20 -255 -64
-344 -111 l-64 -34 -48 26 c-71 38 -174 149 -209 225 -17 36 -34 91 -38 124
-7 57 -8 59 -39 62 -26 3 -34 -2 -46 -25z m1955 -125 c40 -114 56 -178 45
-178 -7 0 -26 50 -43 110 -30 108 -31 151 -2 68z m-46 5 c-2 -16 -5 -34 -5
-40 -1 -7 -5 -13 -11 -13 -5 0 -8 6 -6 13 3 6 7 24 10 40 4 15 9 27 12 27 2 0
3 -12 0 -27z m-1814 -59 c18 -38 56 -92 90 -127 31 -34 56 -62 54 -64 -8 -8
-97 83 -122 125 -16 26 -29 49 -29 52 -1 3 -9 19 -18 37 -18 34 -20 43 -12 43
3 0 20 -30 37 -66z m1798 -14 c0 -5 -2 -10 -4 -10 -3 0 -8 5 -11 10 -3 6 -1
10 4 10 6 0 11 -4 11 -10z m-10 -30 c0 -5 -4 -10 -10 -10 -5 0 -10 5 -10 10 0
6 5 10 10 10 6 0 10 -4 10 -10z m-35 -90 c-36 -71 -45 -55 -10 17 15 32 30 53
32 46 2 -6 -8 -35 -22 -63z m165 -12 c1 -7 3 -39 6 -71 6 -60 -1 -127 -14
-127 -4 0 -8 47 -8 105 -1 58 2 105 7 105 5 0 9 -6 9 -12z m-240 -83 c-7 -9
-15 -13 -18 -10 -3 2 1 11 8 20 7 9 15 13 18 10 3 -2 -1 -11 -8 -20z m226
-162 c-11 -11 -17 4 -9 23 7 18 8 18 11 1 2 -10 1 -21 -2 -24z m174 -248 c82
-56 149 -121 195 -191 45 -68 88 -163 81 -180 -11 -28 -104 -13 -207 33 -51
22 -59 30 -74 71 -23 62 -127 262 -136 262 -6 0 -49 74 -49 84 0 14 137 -43
190 -79z m-2253 -36 c-25 -35 -65 -105 -90 -156 -43 -84 -49 -92 -89 -107
-108 -39 -204 -48 -214 -21 -14 35 134 193 255 272 87 56 174 97 179 83 2 -4
-17 -36 -41 -71z"/>
<path d="M1950 4670 c0 -27 4 -50 9 -50 6 0 7 16 4 35 -3 21 -1 41 7 50 10 12
10 15 -4 15 -13 0 -16 -11 -16 -50z"/>
<path d="M3426 3858 c-115 -66 -144 -349 -46 -443 23 -22 42 -29 83 -33 46 -4
57 -1 84 22 52 44 78 129 82 269 l1 28 28 -21 c22 -16 40 -21 78 -18 42 3 49
6 52 26 3 22 -4 26 -42 22 -15 -1 -18 3 -13 19 5 20 2 21 -27 15 -30 -5 -36
-2 -66 36 -68 86 -149 115 -214 78z m132 -120 c17 -17 15 -63 -4 -79 -14 -11
-19 -10 -34 11 -31 41 3 103 38 68z m-58 -112 c-13 -13 -35 7 -25 24 5 8 11 8
21 -1 10 -8 12 -15 4 -23z"/>
<path d="M2505 3836 c-32 -14 -67 -42 -93 -74 -39 -46 -46 -50 -68 -42 -33 13
-34 13 -34 -9 0 -13 -10 -20 -30 -25 -27 -5 -29 -8 -21 -25 20 -36 99 -34 141
4 16 15 18 11 22 -67 5 -92 31 -164 75 -210 23 -24 35 -28 80 -28 44 0 58 5
88 31 61 54 80 161 50 288 -22 92 -50 136 -102 161 -53 25 -47 25 -108 -4z
m135 -115 c25 -47 1 -104 -33 -78 -17 13 -26 65 -14 85 12 18 35 15 47 -7z
m-55 -109 c0 -18 -20 -15 -23 4 -3 10 1 15 10 12 7 -3 13 -10 13 -16z"/>
<path d="M1679 2873 c0 -5 -2 -20 -4 -35 -2 -15 1 -30 6 -33 5 -4 9 12 9 34 0
23 -2 41 -5 41 -3 0 -5 -3 -6 -7z"/>
<path d="M2205 1438 c-60 -47 -90 -155 -90 -323 0 -104 3 -125 22 -160 27 -52
59 -80 106 -95 50 -16 87 -1 126 52 28 37 30 39 40 20 16 -30 74 -62 113 -62
79 0 124 102 115 260 -4 86 -9 106 -38 160 -45 85 -80 120 -118 120 -26 0 -34
-6 -51 -39 -49 -98 -76 -269 -55 -361 4 -19 4 -32 -1 -27 -4 4 -17 -1 -28 -10
-12 -10 -15 -11 -8 -3 26 30 10 31 -23 1 -23 -20 -46 -31 -65 -31 -26 0 -31 5
-41 43 -15 55 -6 221 15 269 8 20 28 46 43 58 l27 21 13 -24 c12 -24 41 -42
51 -32 11 10 -20 86 -51 126 -42 55 -68 64 -102 37z m-29 -105 c-8 -15 -15
-22 -16 -15 0 17 20 55 27 49 2 -3 -2 -18 -11 -34z m21 -39 c-6 -20 -13 -32
-14 -27 -4 11 14 63 21 63 2 0 -1 -16 -7 -36z m343 -105 c10 -61 10 -81 -4
-138 -18 -74 -40 -106 -56 -81 -5 8 -15 39 -22 69 -12 57 -2 174 22 236 l12
30 18 -22 c10 -13 24 -55 30 -94z m-122 27 c1 -35 -2 -74 -8 -87 -7 -18 -8 -9
-4 36 4 46 3 56 -6 45 -9 -12 -10 -10 -5 10 11 44 16 60 18 60 1 0 3 -29 5
-64z m-1 -183 c-3 -10 -5 -4 -5 12 0 17 2 24 5 18 2 -7 2 -21 0 -30z m143 -11
c0 -10 -7 -27 -15 -38 -13 -17 -13 -15 -3 19 12 41 18 47 18 19z"/>
<path d="M1054 1395 c-18 -32 -29 -43 -35 -34 -16 27 -28 -39 -37 -206 -11
-228 -7 -283 23 -297 49 -22 53 -12 57 164 3 130 8 172 22 206 10 24 21 40 24
37 4 -3 9 -55 12 -115 3 -60 10 -114 16 -120 5 -5 20 -11 34 -12 18 -2 25 2
27 17 8 45 56 185 64 185 5 0 9 -62 9 -137 0 -156 13 -200 63 -216 16 -5 31
-7 34 -4 2 3 7 43 11 89 l5 83 12 -55 c19 -94 56 -130 134 -130 51 0 85 29
110 93 13 34 20 44 20 29 1 -33 26 -86 51 -110 31 -29 97 -38 143 -19 61 26
72 61 70 214 -2 147 -16 211 -63 286 -79 124 -152 67 -181 -142 -6 -42 -14
-92 -19 -111 -8 -34 -8 -33 -9 15 -1 74 -27 163 -65 225 -37 60 -70 84 -96 70
-27 -15 -69 -121 -81 -206 -6 -43 -14 -95 -19 -114 -7 -31 -8 -28 -9 26 -2
112 -56 273 -107 315 -12 10 -19 8 -38 -11 -14 -12 -30 -35 -36 -51 -7 -16
-15 -29 -19 -29 -3 1 -17 24 -31 53 -34 71 -59 74 -96 12z m18 -37 c-7 -7 -12
-8 -12 -2 0 14 12 26 19 19 2 -3 -1 -11 -7 -17z m160 -20 c-7 -7 -12 -8 -12
-2 0 14 12 26 19 19 2 -3 -1 -11 -7 -17z m229 -35 c-12 -20 -14 -14 -5 12 4 9
9 14 11 11 3 -2 0 -13 -6 -23z m260 -10 c-12 -20 -14 -14 -5 12 4 9 9 14 11
11 3 -2 0 -13 -6 -23z m-172 -108 c16 -102 8 -165 -26 -223 -48 -84 -64 -24
-39 144 18 116 34 176 45 170 4 -3 13 -44 20 -91z m279 -68 c4 -103 2 -130
-13 -160 -16 -35 -49 -56 -63 -42 -17 17 4 324 25 357 3 6 15 1 26 -10 17 -18
21 -37 25 -145z"/>
<path d="M3607 1423 c-31 -8 -39 -52 -44 -258 -6 -216 0 -265 41 -311 19 -23
27 -26 59 -20 39 7 77 46 77 78 0 24 -29 20 -51 -6 -16 -20 -16 -20 -22 0 -3
10 -9 56 -12 102 -7 78 -6 82 13 82 39 0 52 11 52 44 0 38 -15 56 -47 56 -22
0 -22 3 -25 117 -3 117 -6 125 -41 116z m0 -135 c-3 -8 -6 -5 -6 6 -1 11 2 17
5 13 3 -3 4 -12 1 -19z m3 -58 c0 -22 -3 -40 -8 -40 -4 0 -6 18 -4 40 2 22 6
40 8 40 2 0 4 -18 4 -40z m-1 -137 c-1 -56 -4 -81 -10 -68 -11 29 -11 155 1
155 6 0 9 -35 9 -87z m91 53 c0 -9 -40 -13 -46 -5 -3 5 6 9 20 9 14 0 26 -2
26 -4z"/>
<path d="M4169 1409 c-1 -5 -3 -13 -4 -19 -1 -5 -3 -57 -4 -115 l-1 -105 -45
0 c-42 0 -45 -2 -72 -47 -25 -43 -28 -58 -28 -135 0 -76 3 -90 21 -109 27 -26
94 -35 150 -20 52 14 52 16 61 257 5 177 1 255 -16 282 -9 15 -60 24 -62 11z
m38 -251 c-2 -24 -4 -5 -4 42 0 47 2 66 4 43 2 -24 2 -62 0 -85z m-130 -62
c-12 -18 -23 -32 -25 -31 -6 6 29 65 38 65 5 0 -1 -15 -13 -34z m130 -128 c-2
-29 -3 -8 -3 47 0 55 1 79 3 53 2 -26 2 -71 0 -100z m-66 92 c24 -13 26 -77 4
-120 -35 -68 -86 33 -53 105 12 28 20 30 49 15z"/>
<path d="M4318 1391 c-13 -35 -23 -448 -11 -491 7 -28 14 -35 34 -35 l24 0 6
160 c4 88 10 206 14 262 6 76 5 106 -4 117 -18 22 -52 15 -63 -13z m19 -413
c-3 -8 -6 -5 -6 6 -1 11 2 17 5 13 3 -3 4 -12 1 -19z m0 -60 c-3 -7 -5 -2 -5
12 0 14 2 19 5 13 2 -7 2 -19 0 -25z"/>
<path d="M4513 1396 c-36 -30 -70 -98 -83 -166 -22 -115 -6 -264 35 -326 24
-37 79 -57 139 -51 42 4 55 10 78 38 16 19 26 39 23 46 -2 7 1 13 7 13 6 0 8
3 5 7 -4 3 -2 12 3 18 14 17 14 196 0 265 -29 149 -127 223 -207 156z m119
-73 c7 -182 -13 -327 -51 -375 l-18 -22 -14 40 c-18 49 -18 233 -1 291 13 42
56 103 73 103 5 0 10 -17 11 -37z m-156 -40 c-18 -33 -21 -26 -6 13 6 15 13
24 16 21 3 -3 -1 -18 -10 -34z m211 -115 c-3 -7 -5 -2 -5 12 0 14 2 19 5 13 2
-7 2 -19 0 -25z m-2 -96 c-4 -31 -10 -51 -12 -44 -3 7 -2 39 2 70 4 31 10 51
12 44 3 -7 2 -39 -2 -70z m-38 -54 c-3 -8 -6 -5 -6 6 -1 11 2 17 5 13 3 -3 4
-12 1 -19z m-7 -26 c0 -5 -7 -17 -15 -28 -14 -18 -14 -17 -4 9 12 27 19 34 19
19z"/>
<path d="M3339 1387 c-68 -46 -98 -122 -84 -214 8 -52 50 -103 84 -103 11 0
36 13 54 30 19 16 37 27 41 23 3 -3 6 -30 6 -58 0 -65 -35 -136 -73 -149 -24
-9 -31 -6 -61 27 -44 48 -56 47 -56 -4 0 -34 6 -47 35 -76 32 -32 39 -35 77
-30 77 10 124 68 154 190 20 81 13 145 -22 187 -32 37 -48 38 -106 1 -25 -16
-49 -27 -52 -24 -8 8 -8 67 0 87 11 28 70 57 111 54 33 -3 38 0 41 19 8 58
-85 84 -149 40z m-42 -126 c-9 -32 -7 -45 10 -80 23 -46 12 -57 -12 -11 -17
34 -19 68 -5 104 14 39 19 31 7 -13z m113 -66 c0 -2 -10 -10 -22 -16 -21 -11
-22 -11 -9 4 13 16 31 23 31 12z m60 -244 c0 -12 -44 -61 -55 -61 -6 0 45 67
53 69 1 1 2 -3 2 -8z m-97 -68 c-7 -2 -21 -2 -30 0 -10 3 -4 5 12 5 17 0 24
-2 18 -5z"/>
<path d="M4900 1401 c-43 -14 -70 -34 -92 -70 -48 -76 -41 -195 13 -244 35
-32 58 -30 100 9 14 13 28 24 32 24 4 0 7 -26 7 -57 0 -67 -22 -117 -63 -147
l-29 -21 -30 35 c-16 19 -33 34 -39 32 -5 -1 -9 3 -9 9 0 5 -4 7 -10 4 -15 -9
-12 -62 5 -94 15 -31 65 -56 102 -53 43 3 82 31 109 77 77 133 66 313 -20 323
-17 2 -43 -6 -67 -23 -22 -14 -44 -23 -49 -20 -13 8 -13 61 0 85 18 34 73 60
113 53 34 -5 37 -4 37 19 0 50 -52 78 -110 59z m-10 -53 c-38 -27 -70 -81 -70
-120 0 -16 -5 -28 -11 -28 -11 0 -5 42 11 85 12 31 66 85 85 85 13 0 8 -7 -15
-22z m40 -151 c0 -2 -10 -12 -22 -23 l-23 -19 19 23 c18 21 26 27 26 19z
m-113 -29 c-3 -8 -6 -5 -6 6 -1 11 2 17 5 13 3 -3 4 -12 1 -19z m190 -60 c-3
-7 -5 -2 -5 12 0 14 2 19 5 13 2 -7 2 -19 0 -25z"/>
<path d="M2654 1363 c-15 -79 4 -288 41 -439 7 -30 47 -46 83 -33 26 9 33 7
60 -20 22 -22 40 -31 64 -31 43 1 111 32 132 61 25 37 21 180 -9 313 -24 107
-44 146 -73 146 -12 0 -14 -13 -8 -77 23 -275 17 -403 -19 -403 -21 0 -34 30
-46 115 -10 63 -15 78 -33 85 -15 5 -23 3 -28 -9 -6 -14 -7 -14 -7 2 -1 10 -5
15 -11 12 -5 -3 -10 -28 -10 -55 0 -144 -45 18 -62 225 -6 72 -13 132 -14 134
-2 2 -15 5 -28 6 -22 3 -26 -2 -32 -32z m13 -30 c-3 -10 -5 -4 -5 12 0 17 2
24 5 18 2 -7 2 -21 0 -30z m30 -235 c-3 -8 -6 -5 -6 6 -1 11 2 17 5 13 3 -3 4
-12 1 -19z m-10 -50 c-3 -8 -6 -5 -6 6 -1 11 2 17 5 13 3 -3 4 -12 1 -19z"/>
<path d="M3785 1390 c-2 -4 -9 -50 -15 -103 -11 -100 -1 -286 20 -359 20 -71
98 -101 153 -58 39 31 51 100 49 295 -1 196 -7 230 -43 230 l-24 0 -6 -180
c-5 -167 -21 -275 -39 -275 -16 0 -40 206 -40 347 0 91 -5 104 -37 109 -7 1
-15 -1 -18 -6z m20 -219 c3 -5 1 -12 -5 -16 -5 -3 -10 1 -10 9 0 18 6 21 15 7z
m7 -83 c2 -21 0 -38 -4 -38 -4 0 -8 21 -7 48 1 52 6 48 11 -10z m5 -70 c-3 -8
-6 -5 -6 6 -1 11 2 17 5 13 3 -3 4 -12 1 -19z m23 -63 c0 -5 -5 -3 -10 5 -5 8
-10 20 -10 25 0 6 5 3 10 -5 5 -8 10 -19 10 -25z m20 -50 c0 -5 -5 -3 -10 5
-5 8 -10 20 -10 25 0 6 5 3 10 -5 5 -8 10 -19 10 -25z"/>
</g>
</svg>
